# xmcd
#
# Track frame offsets: 
#        150
#        38410
#        63721
#        91743
#        104115
#        129974
#        146019
#        171241
#        196075
#        216325
#
# Disc length: 3168 seconds
#
# Revision: 1
# Processed by: cddbd v1.5.2PL0 Copyright (c) Steve Scherf et al.
# Submitted via: ExactAudioCopy v0.99pb4
#
DISCID=8e0c5e0a
DTITLE=Various Artist - For The People Mixed by Donald Glaude
DYEAR=2007
DGENRE=House
TTITLE0=Dub Deluxe feat. MC Flipside - Rock Da Floor (Peter Presta Mix
TTITLE0=)
TTITLE1=Cicada - Cut Right Through (DJ Delicious Mix)
TTITLE2=Mark Knight and Richard Dinsdale - Crunch
TTITLE3=Celtec Twinz - Cynax (Hystereo Rebrand)
TTITLE4=Ben Keen - Sleep
TTITLE5=The Funk Monkeys - I Wanna Fuck You (Max Codeta Mix)
TTITLE6=Grooveman - Get Hot
TTITLE7=Jon Pegnato - Electro Drop
TTITLE8=DJ Dan - Chop Shop (Macca Mix)
TTITLE9=John acquaviva and Madox - Feedback
EXTD=
EXTT0=
EXTT1=
EXTT2=
EXTT3=
EXTT4=
EXTT5=
EXTT6=
EXTT7=
EXTT8=
EXTT9=
PLAYORDER=
